<svg width="128" height="128" viewBox="0 0 128 128" fill="none" xmlns="http://www.w3.org/2000/svg">
<path d="M0 0H128V128H0V0Z" fill="#0F0F0F"/>
<path d="M29.3623 43.1784C29.3623 45.2673 30.7246 46.6166 33.4103 47.1875L35.7846 47.6805C37.1469 47.9919 37.627 48.4071 37.627 49.1466C37.627 50.0548 36.7447 50.6387 35.3175 50.6387C33.8125 50.6387 32.9432 49.9899 32.7097 48.7704H29.012C29.2585 51.5079 31.4771 53.2984 35.3175 53.2984C38.8984 53.2984 41.4025 51.495 41.4025 48.7574C41.4025 46.7204 40.2089 45.5787 37.3026 44.9689L34.9283 44.4629C33.5271 44.1645 33.0081 43.6844 33.0081 42.9708C33.0081 42.0497 33.8774 41.4528 35.1878 41.4528C36.589 41.4528 37.4323 42.2183 37.5491 43.3471H41.0392C40.9614 40.6225 38.7557 38.7931 35.1878 38.7931C31.6458 38.7931 29.3623 40.5317 29.3623 43.1784Z" fill="white"/>
<path d="M43.3616 53H47.1501V34.278H43.3616V53Z" fill="white"/>
<path d="M62.5507 39.0915H58.7621V47.0577C58.7621 48.9001 57.7112 50.1067 56.0246 50.1067C54.3509 50.1067 53.4297 49.1207 53.4297 47.2653V39.0915H49.6412V48.0568C49.6412 51.3004 51.6392 53.2595 54.6493 53.2595C56.7511 53.2595 58.1264 52.2475 58.814 50.4959H58.8919V53H62.5507V39.0915Z" fill="white"/>
<path d="M71.3732 58.2416C75.538 58.2416 78.3145 56.1138 78.3145 52.8054V39.0915H74.5779V41.5177H74.513C73.7864 39.9219 72.2165 38.8709 70.2185 38.8709C66.6895 38.8709 64.5098 41.5826 64.5098 45.9939C64.5098 50.3403 66.7543 52.9611 70.1536 52.9611C72.1646 52.9611 73.7994 51.9491 74.4481 50.47H74.526V52.9092C74.526 54.518 73.4361 55.5949 71.477 55.5949C70.0368 55.5949 68.947 54.9461 68.6486 53.986H64.9379C65.2363 56.4641 67.7144 58.2416 71.3732 58.2416ZM71.4381 50.0418C69.5568 50.0418 68.3891 48.5628 68.3891 46.0198C68.3891 43.4898 69.5698 41.9069 71.4381 41.9069C73.3323 41.9069 74.5389 43.5158 74.5389 46.0198C74.5389 48.5368 73.3323 50.0418 71.4381 50.0418Z" fill="white"/>
<path d="M82.7387 37.2102C83.8415 37.2102 84.7108 36.328 84.7108 35.2641C84.7108 34.1872 83.8415 33.3179 82.7387 33.3179C81.6359 33.3179 80.7666 34.1872 80.7666 35.2641C80.7666 36.328 81.6359 37.2102 82.7387 37.2102ZM80.8574 53H84.6459V39.0915H80.8574V53Z" fill="white"/>
<path d="M88.1879 53H91.9764V41.9459H94.6491V39.1564H91.8856V38.2352C91.8856 37.2492 92.4305 36.7042 93.6761 36.7042C94.0523 36.7042 94.4286 36.7302 94.701 36.7821V34.278C94.2599 34.1872 93.4685 34.1094 92.7679 34.1094C89.4724 34.1094 88.1879 35.3809 88.1879 38.1055V39.1564H86.2937V41.9459H88.1879V53Z" fill="white"/>
<path d="M98.4376 58.1508C101.98 58.1508 103.731 56.8663 104.912 53.2984L109.699 39.0915H105.703L102.758 49.964H102.68L99.7221 39.0915H95.5703L100.41 53C100.423 53.0649 100.28 53.6098 100.28 53.6747C100.021 54.7775 99.3329 55.2186 97.9576 55.2186C97.8149 55.2186 97.1272 55.2056 96.9975 55.1797V58.1119C97.1272 58.1378 98.2949 58.1508 98.4376 58.1508Z" fill="white"/>
<path d="M121.584 57.2166V54.3882H109.271V57.2166H121.584Z" fill="white"/>
<path d="M78.1198 85H81.9083V73.9459H84.5811V71.1564H81.8175V70.2352C81.8175 69.2492 82.3625 68.7042 83.608 68.7042C83.9842 68.7042 84.3605 68.7302 84.633 68.7821V66.278C84.1918 66.1872 83.4004 66.1094 82.6998 66.1094C79.4043 66.1094 78.1198 67.3808 78.1198 70.1055V71.1564H76.2256V73.9459H78.1198V85Z" fill="white"/>
<path d="M92.5732 85.2984C96.7769 85.2984 99.4626 82.6127 99.4626 78.0328C99.4626 73.5177 96.738 70.7931 92.5732 70.7931C88.4085 70.7931 85.6839 73.5307 85.6839 78.0328C85.6839 82.5997 88.3696 85.2984 92.5732 85.2984ZM92.5732 82.4051C90.7049 82.4051 89.5243 80.8352 89.5243 78.0457C89.5243 75.2822 90.7309 73.6864 92.5732 73.6864C94.4156 73.6864 95.6092 75.2822 95.6092 78.0457C95.6092 80.8352 94.4286 82.4051 92.5732 82.4051Z" fill="white"/>
<path d="M101.422 85H105.21V77.2284C105.21 75.2692 106.3 74.1275 108.168 74.1275C108.713 74.1275 109.232 74.2183 109.544 74.3481V71.0137C109.284 70.9358 108.908 70.8709 108.467 70.8709C106.832 70.8709 105.651 71.831 105.158 73.5956H105.08V71.0915H101.422V85Z" fill="white"/>
<path d="M121.584 89.2166V86.3882H109.271V89.2166H121.584Z" fill="white"/>
<path d="M54.1173 117H57.9058V105.946H60.5786V103.156H57.815V102.235C57.815 101.249 58.3599 100.704 59.6055 100.704C59.9817 100.704 60.358 100.73 60.6304 100.782V98.278C60.1893 98.1872 59.3979 98.1094 58.6973 98.1094C55.4018 98.1094 54.1173 99.3809 54.1173 102.105V103.156H52.2231V105.946H54.1173V117Z" fill="white"/>
<path d="M64.5227 101.21C65.6256 101.21 66.4948 100.328 66.4948 99.2641C66.4948 98.1872 65.6256 97.3179 64.5227 97.3179C63.4199 97.3179 62.5506 98.1872 62.5506 99.2641C62.5506 100.328 63.4199 101.21 64.5227 101.21ZM62.6415 117H66.43V103.092H62.6415V117Z" fill="white"/>
<path d="M75.3174 122.242C79.4821 122.242 82.2587 120.114 82.2587 116.805V103.092H78.522V105.518H78.4572C77.7306 103.922 76.1607 102.871 74.1627 102.871C70.6337 102.871 68.454 105.583 68.454 109.994C68.454 114.34 70.6985 116.961 74.0978 116.961C76.1088 116.961 77.7436 115.949 78.3923 114.47H78.4701V116.909C78.4701 118.518 77.3803 119.595 75.4212 119.595C73.981 119.595 72.8912 118.946 72.5928 117.986H68.8821C69.1805 120.464 71.6586 122.242 75.3174 122.242ZM75.3823 114.042C73.501 114.042 72.3333 112.563 72.3333 110.02C72.3333 107.49 73.514 105.907 75.3823 105.907C77.2765 105.907 78.4831 107.516 78.4831 110.02C78.4831 112.537 77.2765 114.042 75.3823 114.042Z" fill="white"/>
<path d="M84.7368 117H88.5253V108.606C88.5253 107.049 89.4983 105.959 90.9385 105.959C92.3397 105.959 93.183 106.841 93.183 108.333V117H96.8288V108.554C96.8288 107.01 97.776 105.959 99.2161 105.959C100.682 105.959 101.487 106.841 101.487 108.45V117H105.275V107.503C105.275 104.7 103.446 102.832 100.721 102.832C98.6842 102.832 97.0234 103.935 96.4007 105.686H96.3228C95.8557 103.87 94.4545 102.832 92.4435 102.832C90.5493 102.832 89.0572 103.935 88.4734 105.609H88.3955V103.092H84.7368V117Z" fill="white"/>
<path d="M111.801 117.221C113.54 117.221 115.265 116.351 116.044 114.872H116.122V117H119.78V107.438C119.78 104.635 117.458 102.793 113.89 102.793C110.205 102.793 107.909 104.648 107.766 107.347H111.23C111.412 106.322 112.307 105.622 113.721 105.622C115.149 105.622 116.057 106.374 116.057 107.671V108.593L112.554 108.8C109.09 109.008 107.143 110.474 107.143 113.004C107.143 115.508 109.154 117.221 111.801 117.221ZM113.047 114.483C111.762 114.483 110.906 113.834 110.906 112.796C110.906 111.81 111.71 111.175 113.125 111.071L116.057 110.889V111.901C116.057 113.406 114.694 114.483 113.047 114.483Z" fill="white"/>
</svg>
